{"accessors":[{"bufferView":0,"componentType":5125,"count":37986,"max":[11755.0],"min":[0.0],"type":"SCALAR"},{"bufferView":1,"componentType":5126,"count":11756,"max":[0.01959659345448017,0.02170742303133011,0.02170742303133011],"min":[-0.01959659345448017,-0.1222863420844078,-0.03788944333791733],"type":"VEC3"},{"bufferView":2,"componentType":5126,"count":11756,"max":[1.0,1.0,1.0],"min":[-1.0,-1.0,-1.0],"type":"VEC3"}],"asset":{"generator":"SimLab GLTF","version":"2.0"},"bufferViews":[{"buffer":0,"byteLength":151944,"target":34963},{"buffer":0,"byteLength":141072,"byteOffset":151944,"byteStride":12,"target":34962},{"buffer":0,"byteLength":141072,"byteOffset":293016,"byteStride":12,"target":34962}],"buffers":[{"byteLength":434088,"uri":"hip implant for github page.bin"}],"extensionsUsed":["KHR_materials_pbrSpecularGlossiness"],"materials":[{"extensions":{"KHR_materials_pbrSpecularGlossiness":{"diffuseFactor":[0.686274528503418,0.658823549747467,0.6392157077789307,1.0],"specularFactor":[0.343137264251709,0.3294117748737335,0.31960785388946535],"glossinessFactor":0.5}},"name":"Mtl","alphaMode":"MASK","doubleSided":true,"pbrMetallicRoughness":{"baseColorFactor":[0.686274528503418,0.658823549747467,0.6392157077789307,1.0],"roughnessFactor":0.5}}],"meshes":[{"primitives":[{"attributes":{"NORMAL":2,"POSITION":1},"indices":0,"material":0,"mode":4}]}],"nodes":[{"children":[1],"matrix":[1.0,0.0,0.0,0.0,0.0,4.4896593387466768e-11,-1.0,0.0,0.0,1.0,4.4896593387466768e-11,0.0,0.0,0.0,0.0,1.0]},{"name":"hip implant","children":[2],"rotation":[-0.5,-0.5,-0.5,-0.5],"translation":[-0.00900255423039198,-0.08569370210170746,0.16585101187229157]},{"name":"Body_1","mesh":0,"rotation":[0.0,0.0,0.0,-1.0]}],"scene":0,"scenes":[{"nodes":[0]}]}
